<svg width="512" height="512" viewBox="0 0 512 512" xmlns="http://www.w3.org/2000/svg">
  <defs>
    <linearGradient id="bg" x1="0%" y1="0%" x2="100%" y2="100%">
      <stop offset="0%" style="stop-color:#0A051F"/>
      <stop offset="100%" style="stop-color:#12083A"/>
    </linearGradient>
    <linearGradient id="glow" x1="0%" y1="0%" x2="100%" y2="100%">
      <stop offset="0%" style="stop-color:#9CFF47;stop-opacity:0.3"/>
      <stop offset="50%" style="stop-color:#39E6C5;stop-opacity:0.2"/>
      <stop offset="100%" style="stop-color:#00D4FF;stop-opacity:0.1"/>
    </linearGradient>
  </defs>
  <rect width="512" height="512" rx="100" fill="url(#bg)"/>
  <circle cx="256" cy="256" r="230" fill="none" stroke="url(#glow)" stroke-width="4"/>
  <circle cx="256" cy="256" r="180" fill="none" stroke="#39E6C5" stroke-width="2" stroke-dasharray="10,5" opacity="0.5"/>
  <path d="M180 256 C220 180 292 180 332 256 C292 332 220 332 180 256 Z" fill="#0C1A2B" stroke="#9CFF47" stroke-width="3"/>
  <circle cx="256" cy="256" r="70" fill="#061018" stroke="#39E6C5" stroke-width="2"/>
  <polygon points="256,170 230,230 245,230 220,290 292,230 275,230 295,170" fill="#9CFF47"/>
  <line x1="200" y1="200" x2="170" y2="170" stroke="#9CFF47" stroke-width="3" stroke-linecap="round"/>
  <line x1="312" y1="200" x2="342" y2="170" stroke="#9CFF47" stroke-width="3" stroke-linecap="round"/>
  <line x1="200" y1="312" x2="170" y2="342" stroke="#39E6C5" stroke-width="2" stroke-linecap="round"/>
  <line x1="312" y1="312" x2="342" y2="342" stroke="#39E6C5" stroke-width="2" stroke-linecap="round"/>
  <circle cx="150" cy="256" r="16" fill="#9CFF47" opacity="0.8"/>
  <circle cx="362" cy="256" r="16" fill="#39E6C5" opacity="0.8"/>
  <rect x="246" y="400" width="20" height="20" rx="4" fill="#9CFF47"/>
  <rect x="246" y="428" width="20" height="20" rx="4" fill="#39E6C5"/>
</svg>
